<svg width="87" height="78" viewBox="0 0 87 78" fill="none" xmlns="http://www.w3.org/2000/svg">
<g clip-path="url(#clip0_318_465)">
<path d="M58.3306 41.2766C56.7383 41.2766 55.5687 40.8687 54.8219 40.0529C54.0751 39.2372 53.7017 37.8847 53.7017 35.9955C53.7017 34.4928 53.9482 32.8756 54.4414 31.1439C54.9487 29.4122 55.752 27.9309 56.8511 26.7001C57.9643 25.4549 59.3734 24.8323 61.0785 24.8323C62.1353 24.8323 62.9878 25.0685 63.636 25.5408C64.2842 26.0131 64.6083 26.7358 64.6083 27.709C64.6083 28.3244 64.4885 28.811 64.249 29.1688C64.0094 29.5123 63.636 29.6841 63.1287 29.6841C62.6214 29.6841 62.2198 29.498 61.9239 29.1259C62.1776 28.9971 62.403 28.7395 62.6003 28.3531C62.7976 27.9667 62.8962 27.5659 62.8962 27.1509C62.8962 26.7644 62.7905 26.4496 62.5791 26.2063C62.3819 25.9629 62.0577 25.8414 61.6069 25.8414C60.86 25.8414 60.1484 26.3637 59.472 27.4084C58.7957 28.4389 58.2461 29.7413 57.8233 31.3156C57.4147 32.8899 57.2104 34.407 57.2104 35.8668C57.2104 36.9544 57.3936 37.7845 57.7599 38.357C58.1263 38.9295 58.7886 39.2157 59.7468 39.2157C60.5782 39.2157 61.3462 39.0297 62.0507 38.6576C62.7553 38.2855 63.3612 37.7559 63.8685 37.0689L64.3546 37.2836C64.0024 38.1853 63.481 38.9366 62.7905 39.5377C62.1 40.1389 61.3603 40.5825 60.5712 40.8687C59.782 41.1406 59.0352 41.2766 58.3306 41.2766Z" fill="#7F5539"/>
<path d="M66.1317 41.019C65.6667 41.019 65.2721 40.8544 64.9481 40.5253C64.624 40.1961 64.4619 39.7953 64.4619 39.3231C64.4619 38.8508 64.624 38.45 64.9481 38.1208C65.2721 37.7774 65.6667 37.6057 66.1317 37.6057C66.5967 37.6057 66.9913 37.7774 67.3153 38.1208C67.6536 38.45 67.8227 38.8508 67.8227 39.3231C67.8227 39.7953 67.6536 40.1961 67.3153 40.5253C66.9913 40.8544 66.5967 41.019 66.1317 41.019Z" fill="#7F5539"/>
<path d="M47.5704 59.054C45.9781 59.054 44.8086 58.6462 44.0617 57.8304C43.3148 57.0146 42.9414 55.6621 42.9414 53.773C42.9414 52.2703 43.1881 50.653 43.6813 48.9213C44.1885 47.1895 44.9917 45.7083 46.0908 44.4775C47.204 43.2324 48.6131 42.6098 50.3182 42.6098C51.375 42.6098 52.2276 42.846 52.8757 43.3183C53.524 43.7905 53.8481 44.5132 53.8481 45.4865C53.8481 46.1019 53.7283 46.5884 53.4887 46.9463C53.2492 47.2897 52.8757 47.4615 52.3685 47.4615C51.8612 47.4615 51.4596 47.2754 51.1637 46.9033C51.4173 46.7745 51.6428 46.5169 51.8401 46.1305C52.0373 45.744 52.136 45.3434 52.136 44.9283C52.136 44.5419 52.0303 44.227 51.8189 43.9838C51.6217 43.7404 51.2976 43.6188 50.8466 43.6188C50.0998 43.6188 49.3882 44.1412 48.7118 45.1859C48.0354 46.2164 47.4859 47.5187 47.0632 49.093C46.6545 50.6673 46.4501 52.1843 46.4501 53.6442C46.4501 54.7319 46.6333 55.5619 46.9997 56.1345C47.3661 56.7069 48.0284 56.9932 48.9866 56.9932C49.818 56.9932 50.5859 56.8071 51.2905 56.435C51.995 56.0629 52.601 55.5334 53.1083 54.8464L53.5944 55.0611C53.2422 55.9627 52.7208 56.7141 52.0303 57.3151C51.3398 57.9163 50.6 58.3599 49.8109 58.6461C49.0218 58.9181 48.275 59.054 47.5704 59.054Z" fill="#7F5539"/>
<path d="M55.3715 58.7965C54.9065 58.7965 54.5119 58.6319 54.1878 58.3027C53.8637 57.9735 53.7017 57.5728 53.7017 57.1005C53.7017 56.6282 53.8637 56.2275 54.1878 55.8983C54.5119 55.5548 54.9065 55.3831 55.3715 55.3831C55.8365 55.3831 56.2311 55.5548 56.5552 55.8983C56.8933 56.2275 57.0624 56.6282 57.0624 57.1005C57.0624 57.5728 56.8933 57.9735 56.5552 58.3027C56.2311 58.6319 55.8365 58.7965 55.3715 58.7965Z" fill="#7F5539"/>
<path d="M37.8588 77.9221C37.0133 77.9221 36.1538 77.5429 35.2801 76.7844L35.111 77.6431H32.0673L34.942 63.9896L38.0702 63.5603L35.5338 75.6036C35.9283 75.8899 36.3299 76.033 36.7386 76.033C37.5418 76.033 38.2463 75.5607 38.8523 74.6161C39.4723 73.6715 39.9514 72.4694 40.2896 71.0096C40.6277 69.5498 40.7968 68.0756 40.7968 66.5872C40.7968 65.1846 40.5221 64.1614 39.9725 63.5173C39.4371 62.859 38.6831 62.5298 37.7109 62.5298C36.654 62.5298 35.7028 62.7445 34.8574 63.1738C34.026 63.5889 33.3708 64.1899 32.8916 64.9771C32.4126 65.7643 32.173 66.6873 32.173 67.7464C32.173 68.276 32.2223 68.6481 32.3209 68.8628C32.4196 69.0632 32.4689 69.1777 32.4689 69.2062C31.7362 69.2062 31.1725 69.0488 30.778 68.7339C30.3975 68.4191 30.2073 67.9111 30.2073 67.2098C30.2073 66.2365 30.5666 65.3135 31.2853 64.4404C32.0039 63.5674 32.9621 62.8661 34.1599 62.3365C35.3717 61.807 36.6752 61.5423 38.0702 61.5423C40.0007 61.5423 41.4239 62.1219 42.3398 63.2812C43.2557 64.4404 43.7137 65.9217 43.7137 67.725C43.7137 69.3565 43.4389 70.9666 42.8894 72.5552C42.3539 74.1295 41.6353 75.4176 40.7334 76.4194C39.8316 77.4212 38.8734 77.9221 37.8588 77.9221Z" fill="#7F5539"/>
<path d="M47.182 77.729C46.1392 77.729 45.3149 77.457 44.709 76.9131C44.103 76.3693 43.8 75.5106 43.8 74.337C43.8 73.3638 43.9973 72.2833 44.3919 71.0954C44.7864 69.9075 45.4205 68.8843 46.2942 68.0256C47.1679 67.1526 48.2669 66.716 49.5915 66.716C51.3952 66.716 52.2971 67.8609 52.2971 70.1509V70.1723C52.3393 70.1866 52.4168 70.1938 52.5296 70.1938C52.9945 70.1938 53.53 70.0721 54.1359 69.8288C54.7419 69.5713 55.2914 69.2635 55.7846 68.9057L55.9749 69.4853C55.5662 69.929 55.0308 70.3083 54.3684 70.6232C53.7203 70.9237 53.0086 71.1383 52.2337 71.2672C52.1209 72.5695 51.832 73.7074 51.367 74.6806C50.902 75.6537 50.3032 76.4051 49.5704 76.9346C48.8377 77.4642 48.0415 77.729 47.182 77.729ZM48.0274 75.7969C48.3656 75.7969 48.7038 75.6036 49.042 75.2172C49.3801 74.8165 49.6761 74.2798 49.9297 73.6072C50.1834 72.9202 50.3666 72.1617 50.4793 71.3315C50.0988 71.2457 49.9086 70.9451 49.9086 70.43C49.9086 69.8432 50.127 69.4567 50.5639 69.2707C50.5357 68.7984 50.4652 68.4764 50.3525 68.3047C50.2397 68.1186 50.0425 68.0256 49.7607 68.0256C49.2956 68.0256 48.8447 68.369 48.4079 69.056C47.971 69.743 47.6188 70.5659 47.351 71.5248C47.0833 72.4836 46.9495 73.3281 46.9495 74.058C46.9495 74.7449 47.0269 75.2101 47.182 75.4534C47.3369 75.6823 47.6188 75.7969 48.0274 75.7969Z" fill="#7F5539"/>
<path d="M61.0152 77.7719C60.1556 77.7719 59.5214 77.5429 59.1128 77.085C58.7182 76.6127 58.521 76.033 58.521 75.3461C58.521 75.0455 58.5562 74.7092 58.6266 74.3371C58.6971 73.9506 58.7676 73.5785 58.838 73.2208C58.9226 72.8629 58.9789 72.634 59.0071 72.5338C59.1199 72.0329 59.2255 71.5391 59.3242 71.0525C59.4228 70.5659 59.4721 70.1723 59.4721 69.8718C59.4721 69.1419 59.2185 68.7769 58.7112 68.7769C58.3448 68.7769 58.0207 68.963 57.7389 69.3351C57.4571 69.6929 57.2316 70.1651 57.0625 70.7519L55.6252 77.6431H52.5815L54.822 66.9092H57.8657L57.6332 68.0256C58.3378 67.2241 59.1621 66.8234 60.1062 66.8234C60.8249 66.8234 61.3956 67.0237 61.8183 67.4245C62.2411 67.8252 62.4525 68.4334 62.4525 69.2492C62.4525 69.6643 62.4031 70.1294 62.3045 70.6446C62.2058 71.1455 62.0649 71.761 61.8818 72.4908C61.769 72.9345 61.6633 73.371 61.5647 73.8004C61.4801 74.2154 61.4379 74.5446 61.4379 74.7879C61.4379 75.0741 61.5012 75.2959 61.6281 75.4534C61.7549 75.6108 61.9733 75.6895 62.2833 75.6895C62.7061 75.6895 63.0443 75.5393 63.2979 75.2387C63.5516 74.9238 63.8052 74.4444 64.0588 73.8004H64.9466C64.4252 75.3746 63.8193 76.4337 63.1288 76.9776C62.4525 77.5071 61.7479 77.7719 61.0152 77.7719Z" fill="#7F5539"/>
<path d="M66.1489 77.7719C65.4725 77.7719 64.923 77.5573 64.5002 77.1279C64.0916 76.6986 63.8872 76.0545 63.8872 75.1958C63.8872 74.838 63.9436 74.3729 64.0563 73.8004L65.4937 66.9092H68.5374L67.0155 74.2082C66.9732 74.4229 66.9521 74.6233 66.9521 74.8094C66.9521 75.3961 67.1635 75.6895 67.5862 75.6895C67.9808 75.6895 68.3189 75.525 68.6008 75.1958C68.8826 74.8523 69.1081 74.3872 69.2771 73.8004L70.7144 66.9092H73.7581L72.2363 74.2082C72.1799 74.4229 72.1517 74.6519 72.1517 74.8952C72.1517 75.1814 72.2152 75.389 72.342 75.5178C72.4829 75.6323 72.7083 75.6895 73.0184 75.6895C73.4129 75.6895 73.7511 75.5178 74.0329 75.1743C74.3288 74.8308 74.5614 74.3729 74.7305 73.8004H75.6182C75.0968 75.3461 74.4487 76.398 73.6736 76.9561C72.9127 77.5 72.1447 77.7719 71.3697 77.7719C70.7637 77.7719 70.2776 77.6001 69.9112 77.2567C69.5589 76.9132 69.3476 76.4052 69.2771 75.7325C68.798 76.5197 68.2908 77.0563 67.7553 77.3426C67.2339 77.6288 66.6984 77.7719 66.1489 77.7719Z" fill="#7F5539"/>
<path d="M76.8205 77.7719C76.1441 77.7719 75.5946 77.5572 75.1718 77.1278C74.7632 76.6985 74.5588 76.0544 74.5588 75.1957C74.5588 74.8379 74.6152 74.3728 74.728 73.8004L75.9962 67.7679H75.2987L75.4678 66.9092H76.1653L76.7993 63.9467L79.9276 63.5173L79.2086 66.9092H80.477L80.3082 67.7679H79.0398L77.6875 74.2082C77.6304 74.4229 77.6027 74.6519 77.6027 74.8952C77.6027 75.1814 77.6659 75.3889 77.793 75.5177C77.934 75.6323 78.159 75.6895 78.4688 75.6895C78.878 75.6895 79.2579 75.5178 79.6108 75.1742C79.963 74.8165 80.2165 74.3585 80.3714 73.8004H81.2591C80.7382 75.346 80.0686 76.3979 79.251 76.9561C78.4341 77.4999 77.6235 77.7719 76.8205 77.7719Z" fill="#7F5539"/>
<path d="M82.7725 77.7719C82.0959 77.7719 81.5257 77.6431 81.0603 77.3855C80.5956 77.1135 80.2504 76.7701 80.0246 76.355C79.7996 75.9257 79.6863 75.482 79.6863 75.024C79.6863 74.5517 79.7996 74.1438 80.0246 73.8004C80.2365 73.4425 80.4969 73.1849 80.8067 73.0275C81.3562 72.0257 81.8355 71.0167 82.2439 70.0006C82.6531 68.9701 83.0407 67.8609 83.4067 66.6731L86.5353 66.2437C86.6054 68.0756 86.7249 70.0579 86.8944 72.1902C86.9645 73.049 87 73.6715 87 74.058C87 74.931 86.7819 75.6466 86.345 76.2047C85.9081 76.7629 85.3656 77.1636 84.7175 77.4069C84.0833 77.6502 83.4352 77.7719 82.7725 77.7719ZM82.0959 76.0759C82.6176 76.0759 83.0545 75.9185 83.4067 75.6036C83.7589 75.2888 83.9353 74.7807 83.9353 74.0794C83.9353 73.6501 83.8929 73.049 83.8082 72.2762C83.6672 70.6446 83.5755 69.5498 83.5339 68.9916C83.1956 70.1222 82.6246 71.4747 81.8216 73.0489C82.1452 73.2207 82.3078 73.4712 82.3078 73.8004C82.3078 74.0723 82.2161 74.3155 82.0327 74.5302C81.864 74.7449 81.6451 74.8523 81.3777 74.8523C81.0818 74.8523 80.8915 74.7593 80.8067 74.5732C80.8067 75.0884 80.9054 75.4676 81.1026 75.711C81.3138 75.9542 81.6451 76.0759 82.0959 76.0759Z" fill="#7F5539"/>
<path d="M50.357 26.9333C46.4179 24.5582 41.706 23.8611 37.2581 24.9953C32.8101 26.1296 28.9905 29.0023 26.6392 32.9815C24.288 36.9609 23.5979 41.7207 24.7208 46.2139C25.8436 50.7072 28.6873 54.5657 32.6264 56.9409L41.4917 41.9371L50.357 26.9333Z" fill="#E8C2CA"/>
<path d="M27.6537 65.1377C24.6135 63.3222 21.9592 60.9168 19.8435 58.0603C17.7278 55.2038 16.1926 51.9526 15.3264 48.494C14.4602 45.0354 14.2801 41.4379 14.7965 37.9086C15.3129 34.3794 16.5156 30.9883 18.3352 27.9308C20.1548 24.8732 22.5554 22.2096 25.3987 20.0936C28.242 17.9774 31.4716 16.4507 34.9017 15.6012C38.3317 14.7518 41.8942 14.5964 45.3839 15.1441C48.8737 15.6919 52.2216 16.9318 55.2348 18.7926L50.5671 26.5061C48.5614 25.2676 46.3329 24.4423 44.01 24.0776C41.6871 23.7131 39.3157 23.8165 37.0326 24.3819C34.7494 24.9473 32.5996 25.9636 30.7071 27.3722C28.8144 28.7807 27.2165 30.5537 26.0053 32.5889C24.7941 34.6241 23.9935 36.8814 23.6498 39.2306C23.306 41.5798 23.4259 43.9744 24.0025 46.2766C24.5791 48.5787 25.6009 50.7429 27.0093 52.6443C28.4175 54.5457 30.1844 56.1468 32.208 57.3553L27.6537 65.1377Z" fill="#D1B3C4"/>
<path d="M20.2837 77.9463C10.8517 72.2563 4.03972 63.0183 1.34268 52.26C-1.35435 41.5018 0.283863 30.102 5.89782 20.5625C11.5118 11.0231 20.6429 4.12314 31.2871 1.377C41.9315 -1.36915 53.2195 0.262811 62.6741 5.91475L55.6112 17.9715C49.318 14.2093 41.8041 13.123 34.7189 14.951C27.6336 16.7789 21.5556 21.3718 17.8187 27.7216C14.0819 34.0715 12.9914 41.6596 14.7867 48.8207C16.5819 55.9818 21.1162 62.1309 27.3945 65.9187L20.2837 77.9463Z" fill="#B392AC"/>
</g>
<defs>
<clipPath id="clip0_318_465">
<rect width="87" height="78" fill="white"/>
</clipPath>
</defs>
</svg>
